<?xml version="1.0" encoding="UTF-8"?>
<svg id="Capa_1" data-name="Capa 1" xmlns="http://www.w3.org/2000/svg" version="1.1" viewBox="0 0 483 477.6">
  <defs>
    <style>
      .cls-1 {
        fill: #000;
        stroke-width: 0px;
      }
    </style>
  </defs>
  <path class="cls-1" d="M150.8,375.8c-.9-.9-1.4-2.1-1.4-3.4V105.2c0-2.6,2.1-4.7,4.7-4.7,0,0,0,0,0,0h36.4c2.6,0,4.7,2.1,4.7,4.7,0,0,0,0,0,0v113.9c0,.6.2,1.3.8,1.6.5.3,1,0,1.6-.8l81-116.2c1.1-2,3.2-3.2,5.5-3.2h39.9c1.5-.2,2.9.5,3.8,1.8.7,1.2.5,2.6-.6,4.2l-74.7,111.1c-.3.9-.3,1.9,0,2.8l80.3,151.4c.4.7.7,1.5.8,2.4,0,2.1-1.3,3.2-4,3.2h-40.4c-2.5,0-4.8-1.3-5.9-3.6l-62.5-117.8c-.3-.8-.7-1.2-1.2-1.2-.6,0-1.2.3-1.6.8l-22.1,30.4c-.4.7-.7,1.5-.8,2.4v84.2c0,2.6-2.1,4.7-4.7,4.7h-36.4c-1.3,0-2.5-.5-3.4-1.4Z"/>
  <g>
    <path class="cls-1" d="M293.1,36.8c0,1.8,1.4,3.2,3.2,3.2h120.6c6.9,0,13.5,2.7,18.5,7.7,5,5,7.7,11.6,7.7,18.5v120.7c0,3.1,2.5,5.6,5.6,5.6h28.8c3.1,0,5.6-2.5,5.6-5.6v-115.1c0-39.5-32.3-71.8-71.8-71.8h-114.9c-1.8,0-3.2,1.4-3.2,3.2v33.6Z"/>
    <path class="cls-1" d="M448.5,307.3c-3,0-5.5,2.5-5.5,5.5v98.5c0,6.9-2.7,13.5-7.7,18.5-5,5-11.6,7.7-18.5,7.7h-119c-2.6,0-4.7,2.1-4.7,4.7v30.5c0,2.6,2.1,4.7,4.7,4.7h119c36.4,0,66.2-29.8,66.2-66.2v-98.5c0-3-2.5-5.5-5.5-5.5h-29Z"/>
    <path class="cls-1" d="M179.4,440.2c0-2.2-1.8-4-4-4h-109.1c-6.9,0-13.5-2.7-18.5-7.7-5-5-7.7-11.6-7.7-18.5V67c0-6.9,2.7-13.5,7.7-18.5,5-5,11.6-7.7,18.5-7.7h109.2c2.1,0,3.8-1.7,3.8-3.8V4.6c0-2.1-1.7-3.8-3.8-3.8h-109.2C29.8.8,0,30.6,0,67v342.9c0,36.4,29.8,66.2,66.2,66.2h109.1c2.2,0,4-1.8,4-4v-31.9Z"/>
  </g>
</svg>