<?xml version="1.0" encoding="UTF-8"?>
<svg id="Layer_1" xmlns="http://www.w3.org/2000/svg" version="1.1" viewBox="0 0 476.9 480.6">
  <!-- Generator: Adobe Illustrator 29.6.1, SVG Export Plug-In . SVG Version: 2.1.1 Build 9)  -->
  <defs>
    <style>
      .st0 {
        fill: #ed1c4a;
      }
    </style>
  </defs>
  <path class="st0" d="M296.9,135.6c-38.4-1-57.6,27.6-57.7,27.7-11.4-15.2-31.7-27.6-54.8-27.8-33.2-.3-61.5,22.7-68.6,54.3-11.2,37.3,5.6,82.3,39.8,110.5,54.5,44.9,113.4,45.9,152.9,44.6h0c2.5-.1,4.5-2.2,4.5-4.7s-.8-3.1-2.1-3.9h0c-3.8-2.7-13.5-11.2-13.1-23,.5-14.9,8.7-22.2,11.8-25.4,7.7-7.8,19.7-18.7,31.6-30.7,16.4-16.5,23.3-34.4,23.3-52.2,0-37.8-30.6-68.5-67.7-69.5"/>
</svg>