<?xml version="1.0" encoding="UTF-8"?>
<svg id="Layer_1" xmlns="http://www.w3.org/2000/svg" version="1.1" viewBox="0 0 1366 768">
  <!-- Generator: Adobe Illustrator 29.6.1, SVG Export Plug-In . SVG Version: 2.1.1 Build 9)  -->
  <defs>
    <style>
      .st0 {
        fill: #fff;
      }

      .st1 {
        fill: #ed1c4a;
      }
    </style>
  </defs>
  <path class="st0" d="M358.7,587.9c-20.2-20-30.3-48.6-30.3-85.8s9.9-65.8,29.8-85.8c19.9-20,48.3-30,85.3-30s28.5,1.5,41.1,4.6c12.6,3,23.3,7.4,32,13,2,1.3,2.9,2.7,2.9,4.2s-.5,2.8-1.6,4.6l-9.1,15.6c-1.3,2-2.5,2.9-3.6,2.9s-2.4-.5-4.6-1.6c-13.7-8.3-31.2-12.4-52.5-12.4s-43.8,7.1-57.7,21.2c-13.9,14.1-20.9,35.3-20.9,63.6s7.2,50.1,21.5,64.1c14.4,14,33.7,21,58,21s41.2-4.2,55.8-12.7c2.2-1.1,3.6-1.6,4.2-1.6,1.3,0,2.6,1,3.9,2.9l10.1,17c.7,1.3,1,2.4,1,3.3,0,1.3-1.2,2.7-3.6,4.2-16.7,11.7-42.1,17.6-76,17.6s-65.5-10-85.8-30"/>
  <path class="st0" d="M553.4,598.5c-12.6-12.9-18.9-31.1-18.9-54.6s4-34.4,12.1-48.4c8-14,19.5-24.8,34.4-32.4,14.9-7.6,32.2-11.4,52-11.4s51,6.5,70.1,19.6v133c0,3.3-.7,5.5-2.1,6.9-1.4,1.3-3.9,2-7.3,2h-17.9c-2.4,0-4.2-.5-5.4-1.5-1.2-1-2-2.5-2.4-4.7l-2.6-12.7c-6.7,8.3-15.1,14.3-24.9,18.1-9.9,3.8-21.9,5.7-36,5.7-21.3,0-38.3-6.5-50.9-19.4M650.4,578.1c8.8-6.7,13.2-15.7,13.2-26.7v-63.6c-4.6-2.4-9.2-4.1-13.9-5.1-4.7-1-10.4-1.5-17.1-1.5-17.2,0-31,5.4-41.4,16.3-10.4,10.9-15.7,25.9-15.7,45s3.6,27.2,10.9,34.6c7.3,7.4,18.4,11.1,33.4,11.1s21.7-3.4,30.5-10.1"/>
  <path class="st0" d="M744.5,610c-2-2-2.9-4.9-2.9-8.8v-136c0-3.3.5-5.5,1.6-6.8,1.1-1.3,3.4-2,6.8-2h18.6c2.4,0,4.1.5,5.2,1.5,1.1,1,1.7,2.7,2,5.1l1,11.7c12.8-15.4,29.7-23.2,50.5-23.2s16.8,1.6,21.8,4.9c1.3.9,2.1,1.8,2.4,2.8.3,1,.3,2.1-.2,3.4l-5.9,19.6c-.7,2.2-1.8,3.3-3.6,3.3l-2.6-.6c-5.2-2.4-11.2-3.6-17.9-3.6-11.1,0-20.2,3.1-27.4,9.3-7.2,6.2-10.8,14.6-10.8,25.3v85.4c0,3.9-.9,6.8-2.8,8.8-1.8,2-5.1,2.9-9.6,2.9h-17c-4.3,0-7.5-1-9.5-2.9"/>
  <path class="st0" d="M860.9,534.4c0-16.3,3.1-30.7,9.5-43.2,6.3-12.5,15.4-22.2,27.2-29.2,11.8-6.9,25.8-10.4,41.9-10.4,22.8,0,39.3,5.1,49.6,15.3v-63.6c0-4.1,1-7.2,2.9-9.1,2-2,5.1-2.9,9.5-2.9h16.3c4.3,0,7.5,1,9.5,2.9,2,2,2.9,5,2.9,9.1v193.4c-8.3,6.1-19.4,11.1-33.3,15.2-13.9,4-28.4,6-43.4,6-61.7,0-92.6-27.8-92.6-83.5M989,580.4v-66.5c0-10.6-3.7-18.7-11.1-24.1-7.4-5.4-17-8.2-28.7-8.2s-27.7,4.8-35.5,14.3c-7.8,9.6-11.7,22.7-11.7,39.5s4.3,32.2,13,40.4c8.7,8.3,21.8,12.4,39.5,12.4s26.1-2.6,34.6-7.8"/>
  <path class="st0" d="M1072.8,424.8c-2.8-3-4.2-6.7-4.2-11.1v-6.9c0-4.3,1.4-8,4.2-11.1,2.8-3,6.8-4.6,12.1-4.6h14c5.2,0,9.3,1.5,12.2,4.6,2.9,3.1,4.4,6.7,4.4,11.1v6.9c0,4.3-1.5,8-4.4,11.1-2.9,3-7,4.6-12.2,4.6h-14c-5.2,0-9.2-1.5-12.1-4.6M1074.1,610c-2-2-2.9-4.9-2.9-8.8v-132.7c0-4.1,1-7.2,2.9-9.1,2-2,5.1-2.9,9.5-2.9h17c4.3,0,7.5,1,9.5,2.9,2,2,2.9,5,2.9,9.1v132.7c0,3.9-.9,6.8-2.8,8.8-1.8,2-5.1,2.9-9.6,2.9h-17c-4.4,0-7.5-1-9.5-2.9"/>
  <path class="st0" d="M1163.9,595.5c-15.3-14.9-23-35.2-23-60.8s7.7-45.9,23-60.8c15.3-14.9,37.1-22.3,65.4-22.3s50.1,7.4,65.5,22.3c15.4,14.9,23.1,35.2,23.1,60.8s-7.7,45.9-23.1,60.8c-15.4,14.9-37.3,22.3-65.5,22.3s-50.1-7.4-65.4-22.3M1264.5,573.8c8-8.9,12.1-22,12.1-39.1s-4-29.8-12.1-38.6c-8-8.8-19.8-13.2-35.2-13.2s-26.9,4.4-35.1,13.2c-8.2,8.8-12.2,21.7-12.2,38.6s4.1,29.9,12.2,39c8.1,9,19.8,13.5,35.1,13.5s27.2-4.5,35.2-13.4"/>
  <path class="st1" d="M291.4,150.2c-38.4-1-57.6,27.6-57.7,27.7-11.4-15.2-31.7-27.6-54.8-27.8-33.2-.3-61.5,22.7-68.6,54.3-11.2,37.3,5.6,82.3,39.8,110.5,54.5,44.9,113.4,45.9,152.9,44.6h0c2.5-.1,4.5-2.2,4.5-4.7s-.8-3.1-2.1-3.9c0,0,0,0,0,0-3.8-2.7-13.5-11.2-13.1-23,.5-14.9,8.7-22.2,11.8-25.4,7.7-7.8,19.7-18.7,31.6-30.7,16.4-16.5,23.3-34.4,23.3-52.2,0-37.8-30.6-68.5-67.7-69.5"/>
  <path class="st0" d="M146.8,597.9c-12.6-12.9-18.9-31.1-18.9-54.6s4-34.4,12.1-48.4c8-14,19.5-24.8,34.4-32.4,14.9-7.6,32.2-11.4,52-11.4s51,6.5,70.1,19.6v133c0,3.3-.7,5.5-2.1,6.9-1.4,1.3-3.9,2-7.3,2h-17.9c-2.4,0-4.2-.5-5.4-1.5-1.2-1-2-2.5-2.4-4.7l-2.6-12.7c-6.7,8.3-15.1,14.3-24.9,18.1-9.9,3.8-21.9,5.7-36,5.7-21.3,0-38.3-6.5-50.9-19.4M243.8,577.5c8.8-6.7,13.2-15.7,13.2-26.7v-63.6c-4.6-2.4-9.2-4.1-13.9-5.1-4.7-1-10.4-1.5-17.1-1.5-17.2,0-31,5.4-41.4,16.3-10.4,10.9-15.7,25.9-15.7,45s3.6,27.2,10.9,34.6c7.3,7.4,18.4,11.1,33.4,11.1s21.7-3.4,30.5-10.1"/>
  <path class="st0" d="M106.2,582.1c-1.9-.4-3.6-.9-5-1.6-3-1.3-5.3-3-6.9-5.1-1.6-2.1-2.7-4.6-3.3-7.7-.6-3-.8-6.4-.9-10.2v-152.8c0-.3-.1-.5-.1-.7v-.7c0-.3,0-.6-.1-.9-.3-2.9-1.2-5.2-2.8-6.8-2-2-5.2-2.9-9.5-2.9h-17.1c-4.4,0-7.6,1-9.5,2.9-1.6,1.6-2.5,3.9-2.8,6.9,0,.3-.1.5-.1.8v1.4s0,0,0,.1v132.7c0,.6,0,1.2.1,1.8v26.9c0,8,.8,15.1,2.4,21.5,1.6,6.4,4.6,11.8,9,16.2,4.4,4.5,10.4,7.9,18.1,10.4,6.2,2,16.8,3.2,26,3.7,3.8.2,7.2-2.5,7.8-6.2l.5-21c.7-4-1.9-7.7-5.9-8.5"/>
</svg>