<?xml version="1.0" encoding="UTF-8" standalone="no"?>
<svg
   id="main-color"
   viewBox="0 0 1540 600"
   version="1.1"
   sodipodi:docname="main-color.svg"
   width="1540"
   height="600"
   inkscape:version="1.1.1 (3bf5ae0d25, 2021-09-20, custom)"
   xmlns:inkscape="http://www.inkscape.org/namespaces/inkscape"
   xmlns:sodipodi="http://sodipodi.sourceforge.net/DTD/sodipodi-0.dtd"
   xmlns="http://www.w3.org/2000/svg"
   xmlns:svg="http://www.w3.org/2000/svg">
  <style
     id="style">
.hidden {
    display:none;
}
.main-color {
    fill:#ffffff;
}
  </style>
  <sodipodi:namedview
     id="namedview"
     pagecolor="#ffffff"
     bordercolor="#666666"
     borderopacity="1.0"
     inkscape:pageshadow="2"
     inkscape:pageopacity="0.0"
     inkscape:pagecheckerboard="0"
     showgrid="false"
     showguides="true"
     inkscape:zoom="0.29831067"
     inkscape:cx="509.53591"
     inkscape:cy="387.18025"
     inkscape:window-width="1920"
     inkscape:window-height="1023"
     inkscape:window-x="0"
     inkscape:window-y="29"
     inkscape:window-maximized="1"
     inkscape:current-layer="main-color" />
  <defs
     id="defs" />
  <path
     id="left-bracket"
     class="main-color"
     d="m 0,520 c 0,40 50,80 100,80 H 280 V 550 H 140 C 100,550 65,520 65,490 V 110 C 65,80 100,50 140,50 H 280 V 0 H 100 C 50,0 0,40 0,80 Z"
     sodipodi:nodetypes="ssccssssccsss" />
  <path
     id="right-bottom-bracket"
     class="main-color"
     d="M 583.49805,520 C 569.98781,537.20424 546.09304,550 520,550 H 380 v 50 h 180 c 50,0 100,-40 100,-80 z" />
  <path
     id="right-upper-bracket"
     class="main-color"
     d="m 380,0 v 50 h 140 c 40,0 75,30 75,60 v 70 h 65 V 80 C 660,40 610,0 560,0 Z" />
  <g
     id="Kumpels-path">
    <path
       d="m 221.92,460 q -2.1,0 -3.78,-1.26 -1.26,-1.68 -1.26,-3.78 V 171.04 q 0,-2.1 1.26,-3.36 1.68,-1.68 3.78,-1.68 h 38.64 q 2.1,0 3.36,1.68 1.68,1.26 1.68,3.36 V 292 q 0,1.26 0.84,1.68 0.84,0.42 1.68,-0.84 l 86.1,-123.48 q 2.1,-3.36 5.88,-3.36 h 42.42 q 2.94,0 3.78,2.1 1.26,1.68 -0.42,4.2 L 326.5,290.32 q -0.42,1.26 0,2.94 l 85.26,160.86 q 0.84,1.68 0.84,2.52 0,3.36 -4.2,3.36 h -42.84 q -4.2,0 -6.3,-3.78 L 292.9,331.06 q -0.42,-1.26 -1.26,-1.26 -0.84,0 -1.68,0.84 l -23.52,32.34 q -0.84,1.68 -0.84,2.52 v 89.46 q 0,2.1 -1.68,3.78 -1.26,1.26 -3.36,1.26 z"
       id="K-path"
       class="main-color" />
    <path
       d="m 536.97991,250.42 q 0,-2.1 1.26,-3.36 1.68,-1.68 3.78,-1.68 h 38.64 q 2.1,0 3.36,1.68 1.68,1.26 1.68,3.36 v 204.54 q 0,2.1 -1.68,3.78 -1.26,1.26 -3.36,1.26 h -38.64 q -2.1,0 -3.78,-1.26 -1.26,-1.68 -1.26,-3.78 v -11.34 q 0,-1.26 -0.84,-1.26 -0.84,-0.42 -1.68,0.84 -14.28,19.74 -44.94,19.74 -28.56,0 -47.46,-16.8 -18.9,-17.22 -18.9,-49.98 V 250.42 q 0,-2.1 1.26,-3.36 1.68,-1.68 3.78,-1.68 h 38.64 q 2.1,0 3.36,1.68 1.68,1.26 1.68,3.36 v 133.56 q 0,17.64 7.98,27.72 8.4,9.66 23.94,9.66 15.54,0 24.36,-10.08 8.82,-10.5 8.82,-28.14 z"
       id="u-path"
       class="main-color" />
    <path
       d="m 820.96002,242.02 q 29.82,0 45.78,19.32 16.38,19.32 16.38,53.76 v 139.86 q 0,2.1 -1.68,3.78 -1.26,1.26 -3.36,1.26 h -38.22 q -2.1,0 -3.78,-1.26 -1.26,-1.68 -1.26,-3.78 V 321.82 q 0,-17.64 -8.4,-27.72 -8.4,-10.08 -22.26,-10.08 -14.7,0 -23.52,10.08 -8.4,10.08 -8.4,27.3 v 133.56 q 0,2.1 -1.68,3.78 -1.26,1.26 -3.36,1.26 h -38.64 q -2.1,0 -3.78,-1.26 -1.26,-1.68 -1.26,-3.78 V 321.82 q 0,-17.64 -8.4,-27.72 -8.4,-10.08 -22.26,-10.08 -14.7,0 -23.52,10.08 -8.4,10.08 -8.4,27.3 v 133.56 q 0,2.1 -1.68,3.78 -1.26,1.26 -3.36,1.26 h -38.22 q -2.1,0 -3.78,-1.26 -1.26,-1.68 -1.26,-3.78 V 250.42 q 0,-2.1 1.26,-3.36 1.68,-1.68 3.78,-1.68 h 38.22 q 2.1,0 3.36,1.68 1.68,1.26 1.68,3.36 v 10.5 q 0,1.26 0.84,1.68 0.84,0 1.68,-0.84 17.22,-19.74 46.62,-19.74 18.48,0 31.92,7.98 13.44,7.56 21,21.84 0.84,0.84 1.68,0.84 0.84,0 1.26,-1.68 9.66,-15.12 23.94,-21.84 14.7,-7.14 31.08,-7.14 z"
       id="m-path"
       class="main-color" />
    <path
       d="m 1073.02,305.86 q 4.62,21.42 4.62,47.46 0,24.36 -3.78,45.78 -13.02,64.26 -68.04,64.26 -29.40005,0 -44.10005,-18.9 -0.84,-1.26 -1.68,-0.84 -0.84,0 -0.84,1.26 v 89.46 q 0,2.1 -1.68,3.36 -1.26,1.68 -3.36,1.68 h -38.64 q -2.1,0 -3.78,-1.68 -1.26,-1.26 -1.26,-3.36 V 250.42 q 0,-2.1 1.26,-3.36 1.68,-1.68 3.78,-1.68 h 38.64 q 2.1,0 3.36,1.68 1.68,1.26 1.68,3.36 v 10.92 q 0,1.26 0.84,1.68 0.84,0.42 1.68,-0.84 15.96,-20.16 45.78005,-20.16 26.04,0 42,15.96 16.38,15.96 23.52,47.88 z m -49.56,90.72 q 5.04,-16.38 5.04,-43.68 0,-27.3 -4.2,-42 -7.56,-27.3 -31.08005,-27.3 -22.68,0 -29.4,26.88 -4.2,14.7 -4.2,42.42 0,28.14 4.62,42.84 6.72,25.62 28.56,25.62 21.84005,0 30.66005,-24.78 z"
       id="p-path"
       class="main-color" />
    <path
       d="m 1263.76,316.78 q 1.26,13.86 1.26,31.92 l -0.42,18.06 q 0,5.04 -5.04,5.04 H 1147 q -2.1,0 -2.1,2.1 0.84,11.76 1.68,17.22 2.1,13.86 11.76,22.26 9.66,8.4 24.36,8.4 12.6,-0.42 21,-6.3 8.82,-5.88 13.44,-16.38 2.1,-4.62 6.3,-3.36 l 34.44,7.14 q 5.04,1.68 3.36,6.3 -8.4,26.04 -28.98,40.32 -20.16,13.86 -49.56,13.86 -34.86,0 -55.86,-16.8 -21,-16.8 -27.3,-46.62 -2.1,-11.34 -2.94,-23.94 -0.42,-12.6 -0.42,-33.6 0,-21.84 2.1,-33.18 4.2,-30.66 26.04,-48.72 21.84,-18.48 55.44,-18.48 36.54,0 58.8,20.58 22.68,20.58 25.2,54.18 z m -83.58,-32.76 q -13.86,0 -23.1,8.4 -8.82,7.98 -10.92,21.84 -1.26,9.24 -1.26,21 0,2.1 2.1,2.1 h 66.78 q 2.1,0 2.1,-2.1 -0.84,-14.28 -1.68,-20.58 -1.68,-13.86 -10.92,-22.26 -9.24,-8.4 -23.1,-8.4 z"
       id="e-path"
       class="main-color" />
    <path
       d="m 1289.8596,460 q -2.1,0 -3.78,-1.26 -1.26,-1.68 -1.26,-3.78 V 171.04 q 0,-2.1 1.26,-3.36 1.68,-1.68 3.78,-1.68 h 38.64 q 2.1,0 3.36,1.68 1.68,1.26 1.68,3.36 v 283.92 q 0,2.1 -1.68,3.78 -1.26,1.26 -3.36,1.26 z"
       id="l-path"
       class="main-color" />
    <path
       d="m 1432.2996,462.52 q -36.54,0 -58.38,-16.38 -21.84,-16.38 -21.84,-42.84 v -3.36 q 0,-2.1 1.26,-3.36 1.68,-1.68 3.78,-1.68 h 36.54 q 2.1,0 3.36,1.68 1.68,1.26 1.68,3.36 v 1.26 q 0,10.08 9.66,17.64 9.66,7.14 23.94,7.14 13.86,0 22.26,-6.72 8.82,-6.72 8.82,-16.8 0,-10.08 -8.82,-15.54 -8.4,-5.46 -26.46,-11.76 l -10.92,-3.78 q -28.56,-9.24 -45.78,-23.1 -17.22,-14.28 -17.22,-42 0,-29.4 21,-46.2 21,-17.22 55.44,-17.22 35.7,0 56.7,17.64 21.42,17.22 21.42,46.2 v 0.42 q 0,2.1 -1.68,3.78 -1.26,1.26 -3.36,1.26 h -35.28 q -2.1,0 -3.78,-1.26 -1.26,-1.68 -1.26,-3.78 v -1.68 q 0,-10.5 -8.82,-17.22 -8.82,-7.14 -23.1,-7.14 -13.86,0 -22.26,6.72 -8.4,6.3 -8.4,16.38 0,7.98 5.88,13.44 5.88,5.04 13.02,7.98 7.56,2.94 26.04,9.24 19.74,6.72 33.18,13.86 13.86,7.14 23.52,19.74 9.66,12.6 9.66,31.92 0,28.98 -21.84,45.78 -21.42,16.38 -57.96,16.38 z"
       id="s-path"
       class="main-color" />
  </g>
  <text
     xml:space="preserve"
     style="font-weight:600;font-stretch:semi-condensed;font-size:420px;font-family:'Barlow Semi Condensed';letter-spacing:-18px"
     x="190"
     y="460"
     id="Kumpels-text"
     class="main-color hidden">Kumpels</text>
</svg>
